General
Complete name                            : Beautiful.Creatures.2013.WEBRip.Xvid.AC3.ReLeNTLesS.avi
Format                                   : AVI
Format/Info                              : Audio Video Interleave
File size                                : 1.20 GiB
Duration                                 : 2h 3mn
Overall bit rate                         : 1 385 Kbps

Video
ID                                       : 0
Format                                   : MPEG-4 Visual
Format profile                           : Advanced Simple@L5
Format settings, BVOP                    : 2
Format settings, QPel                    : No
Format settings, GMC                     : No warppoints
Format settings, Matrix                  : Default (H.263)
Codec ID                                 : XVID
Codec ID/Hint                            : XviD
Duration                                 : 2h 3mn
Bit rate                                 : 993 Kbps
Width                                    : 720 pixels
Height                                   : 304 pixels
Display aspect ratio                     : 2.35:1
Frame rate                               : 23.976 fps
Color space                              : YUV
Chroma subsampling                       : 4:2:0
Bit depth                                : 8 bits
Scan type                                : Progressive
Compression mode                         : Lossy
Bits/(Pixel*Frame)                       : 0.189
Stream size                              : 879 MiB (72%)
Writing library                          : XviD 1.2.1 (UTC 2008-12-04)

Audio
ID                                       : 1
Format                                   : AC-3
Format/Info                              : Audio Coding 3
Mode extension                           : CM (complete main)
Format settings, Endianness              : Big
Codec ID                                 : 2000
Duration                                 : 2h 3mn
Bit rate mode                            : Constant
Bit rate                                 : 384 Kbps
Channel(s)                               : 6 channels
Channel positions                        : Front: L C R, Side: L R, LFE
Sampling rate                            : 48.0 KHz
Bit depth                                : 16 bits
Compression mode                         : Lossy
Stream size                              : 340 MiB (28%)
Alignment                                : Aligned on interleaves
Interleave, duration                     : 64 ms (1.53 video frames)
Interleave, preload duration             : 192 ms
Sample included                                :  Yes

PL0T:
Ethan longs to escape his small Southern town. He meets a mysterious new girl, Lena. Together, they uncover dark secrets about their respective families, their history and their town.

CAST:
Director:  Richard LaGravenese
Writers:  Richard LaGravenese (screenplay), Kami Garcia (based on the novel "Beautiful Creatures" )
Stars:  Alden Ehrenreich, Alice Englert, Viola Davis

SCREENS: 
http://i.imgur.com/zA3fOrJ.png 
http://i.imgur.com/jc87Ynr.png 
http://i.imgur.com/txHNhEL.png 
http://i.imgur.com/yjojDbe.png 
http://i.imgur.com/0oomRns.png